<svg id="svg" version="1.1" width="400" height="350.7389162561576" xmlns="http://www.w3.org/2000/svg" xmlns:xlink="http://www.w3.org/1999/xlink" style="display: block;"><g id="svgg"><path id="path0" d="" stroke="none" fill="#000000" fill-rule="evenodd"></path><path id="path1" d="" stroke="none" fill="#7f7f7f" fill-rule="evenodd"></path><path id="path2" d="M251.053 229.200 C 234.456 229.371,220.680 229.576,220.439 229.657 C 220.109 229.766,220.000 231.372,220.000 236.092 C 220.000 240.813,220.109 242.417,220.439 242.525 C 220.948 242.692,264.672 242.306,289.394 241.916 L 306.331 241.649 306.236 235.298 L 306.140 228.947 293.684 228.919 C 286.833 228.903,267.649 229.030,251.053 229.200 " stroke="none" fill="#ffffff" fill-rule="evenodd"></path><path id="path3" d="" stroke="none" fill="#ff0000" fill-rule="evenodd"></path><path id="path4" d="M396.667 1.949 C 395.509 3.021,394.013 4.323,393.344 4.844 C 392.674 5.364,391.503 6.388,390.742 7.121 C 389.980 7.853,388.735 8.958,387.974 9.577 C 387.214 10.196,385.543 11.686,384.261 12.890 C 382.979 14.093,381.820 15.080,381.686 15.083 C 381.553 15.086,380.516 15.996,379.384 17.105 C 378.251 18.215,376.717 19.596,375.975 20.175 C 375.232 20.754,374.134 21.702,373.535 22.281 C 372.936 22.860,371.896 23.749,371.223 24.258 C 370.550 24.766,369.270 25.872,368.378 26.714 C 367.486 27.556,366.149 28.719,365.408 29.298 C 364.667 29.877,363.444 30.982,362.690 31.754 C 361.937 32.526,360.951 33.402,360.499 33.700 C 359.647 34.261,356.615 36.949,352.896 40.439 C 351.713 41.548,350.627 42.456,350.482 42.456 C 350.338 42.456,349.165 43.484,347.878 44.741 C 346.590 45.997,345.041 47.367,344.435 47.785 C 343.829 48.203,342.697 49.189,341.920 49.975 C 341.142 50.760,339.885 51.872,339.125 52.444 C 338.366 53.016,337.176 54.052,336.482 54.746 C 335.788 55.440,334.887 56.241,334.480 56.526 C 334.072 56.812,332.644 58.065,331.305 59.312 C 329.966 60.559,328.476 61.895,327.993 62.281 C 326.201 63.715,322.990 66.536,321.565 67.929 C 320.756 68.719,319.481 69.811,318.731 70.355 C 317.982 70.899,316.658 72.068,315.789 72.953 C 314.921 73.838,313.579 75.030,312.807 75.602 C 312.035 76.174,310.851 77.200,310.175 77.882 C 309.500 78.565,308.316 79.592,307.544 80.165 C 306.772 80.738,305.430 81.922,304.561 82.796 C 303.693 83.671,302.430 84.799,301.754 85.304 C 301.079 85.809,299.893 86.835,299.120 87.585 C 298.346 88.334,296.925 89.579,295.962 90.351 C 294.999 91.123,293.632 92.346,292.923 93.070 C 292.214 93.794,291.548 94.386,291.443 94.386 C 291.233 94.386,289.354 96.022,287.515 97.807 C 286.868 98.434,286.167 98.947,285.956 98.947 C 285.745 98.947,285.670 99.105,285.789 99.298 C 285.909 99.491,285.832 99.649,285.619 99.649 C 285.406 99.649,284.852 100.004,284.388 100.439 C 283.925 100.873,282.818 101.860,281.929 102.632 C 281.040 103.404,279.867 104.430,279.322 104.912 C 278.778 105.395,277.586 106.421,276.674 107.193 C 275.762 107.965,274.428 109.149,273.710 109.825 C 272.992 110.500,271.798 111.526,271.057 112.105 C 270.316 112.684,269.064 113.789,268.276 114.561 C 267.487 115.333,266.063 116.597,265.110 117.368 C 264.157 118.140,262.815 119.325,262.128 120.000 C 261.440 120.676,260.246 121.697,259.474 122.270 C 258.702 122.843,257.360 124.027,256.491 124.901 C 255.623 125.776,254.281 126.961,253.509 127.536 C 252.737 128.110,251.276 129.413,250.263 130.431 C 249.250 131.448,248.421 132.203,248.421 132.108 C 248.421 131.872,246.874 133.196,245.042 135.000 C 244.209 135.820,243.431 136.491,243.313 136.491 C 243.195 136.491,242.283 137.269,241.286 138.219 C 239.610 139.816,239.075 140.293,237.310 141.765 C 236.666 142.302,234.966 143.805,230.176 148.070 C 228.767 149.325,227.383 150.487,227.100 150.654 C 226.493 151.012,223.005 154.215,221.986 155.351 C 221.596 155.785,221.135 156.140,220.962 156.140 C 220.788 156.140,219.942 156.844,219.082 157.705 C 218.221 158.565,217.010 159.628,216.390 160.067 C 215.770 160.505,214.448 161.696,213.451 162.713 C 212.455 163.730,211.498 164.561,211.324 164.561 C 211.151 164.561,209.801 165.746,208.326 167.193 C 206.850 168.640,205.496 169.825,205.318 169.825 C 205.140 169.825,204.448 170.429,203.780 171.168 C 203.112 171.908,201.949 172.963,201.195 173.513 C 200.441 174.064,198.999 175.354,197.990 176.380 C 196.981 177.406,196.004 178.246,195.817 178.246 C 195.631 178.246,194.551 179.154,193.419 180.263 C 192.286 181.373,190.738 182.739,189.978 183.298 C 189.218 183.858,188.044 184.886,187.368 185.582 C 186.693 186.278,185.588 187.260,184.912 187.763 C 184.237 188.267,183.046 189.291,182.266 190.041 C 181.485 190.790,179.907 192.193,178.757 193.158 C 177.607 194.123,176.342 195.228,175.944 195.614 C 175.547 196.000,174.454 196.947,173.515 197.719 C 172.577 198.491,171.129 199.794,170.299 200.614 C 169.469 201.434,168.702 202.105,168.594 202.105 C 168.486 202.105,167.875 202.618,167.235 203.246 C 166.596 203.873,165.324 205.018,164.407 205.789 C 163.491 206.561,162.302 207.588,161.765 208.070 C 161.228 208.553,160.042 209.579,159.130 210.351 C 158.218 211.123,156.884 212.307,156.166 212.982 C 155.448 213.658,154.254 214.684,153.513 215.263 C 152.772 215.842,151.516 216.947,150.723 217.719 C 149.929 218.491,148.494 219.751,147.535 220.519 C 146.575 221.288,145.237 222.472,144.561 223.151 C 143.886 223.830,142.781 224.799,142.105 225.304 C 141.430 225.809,140.240 226.835,139.460 227.585 C 138.681 228.334,137.260 229.576,136.302 230.344 C 135.345 231.112,133.982 232.336,133.273 233.063 C 132.565 233.791,131.895 234.386,131.785 234.386 C 131.529 234.386,130.176 235.537,128.072 237.544 C 127.162 238.412,125.810 239.596,125.068 240.175 C 124.325 240.754,123.043 241.899,122.219 242.719 C 121.395 243.539,120.630 244.211,120.520 244.211 C 120.409 244.211,119.950 244.566,119.499 245.000 C 119.048 245.434,117.782 246.579,116.684 247.544 C 113.178 250.626,112.723 251.026,111.085 252.456 C 110.201 253.228,108.727 254.549,107.809 255.391 C 106.891 256.234,105.590 257.339,104.917 257.847 C 104.244 258.356,103.203 259.246,102.604 259.825 C 100.144 262.200,98.273 263.860,98.056 263.860 C 97.929 263.860,97.407 264.298,96.895 264.834 C 96.384 265.370,95.175 266.435,94.211 267.202 C 93.246 267.969,91.825 269.243,91.053 270.032 C 90.281 270.822,89.378 271.615,89.047 271.794 C 88.448 272.118,84.644 275.534,80.593 279.386 C 79.426 280.496,78.325 281.404,78.147 281.404 C 77.968 281.404,76.728 282.509,75.390 283.860 C 74.053 285.211,72.813 286.316,72.635 286.316 C 72.458 286.316,71.460 287.147,70.419 288.164 C 69.378 289.180,67.911 290.474,67.158 291.040 C 66.405 291.605,65.230 292.629,64.546 293.314 C 63.862 294.000,62.599 295.135,61.739 295.835 C 60.879 296.536,59.698 297.563,59.115 298.116 C 58.532 298.670,57.505 299.543,56.834 300.056 C 56.163 300.569,54.781 301.793,53.764 302.775 C 52.746 303.758,51.831 304.561,51.731 304.561 C 51.630 304.561,51.121 304.964,50.599 305.456 C 50.076 305.949,48.794 307.093,47.749 308.000 C 46.704 308.907,45.204 310.255,44.416 310.995 C 43.629 311.736,42.448 312.762,41.792 313.276 C 41.137 313.790,39.862 314.921,38.961 315.789 C 38.059 316.658,36.714 317.842,35.972 318.421 C 35.229 319.000,33.976 320.108,33.188 320.883 C 32.399 321.658,31.126 322.763,30.358 323.339 C 29.590 323.915,28.126 325.215,27.105 326.228 C 26.084 327.241,25.128 328.070,24.982 328.070 C 24.836 328.070,23.679 329.057,22.411 330.263 C 21.144 331.469,19.669 332.772,19.135 333.158 C 18.601 333.544,17.416 334.570,16.501 335.439 C 15.587 336.307,14.231 337.491,13.489 338.070 C 12.746 338.649,11.464 339.794,10.640 340.614 C 9.816 341.434,8.970 342.105,8.760 342.105 C 8.551 342.105,8.477 342.263,8.596 342.456 C 8.716 342.649,8.647 342.807,8.444 342.807 C 8.060 342.807,7.140 343.536,4.899 345.614 C 4.171 346.289,2.771 347.537,1.787 348.386 C 0.804 349.235,0.000 350.143,0.000 350.403 C 0.000 350.801,32.317 350.877,200.000 350.877 L 400.000 350.877 400.000 175.439 C 400.000 8.588,399.970 0.000,399.386 0.000 C 399.048 0.001,397.825 0.878,396.667 1.949 M306.236 235.298 L 306.331 241.649 289.394 241.916 C 264.672 242.306,220.948 242.692,220.439 242.525 C 220.109 242.417,220.000 240.813,220.000 236.092 C 220.000 231.372,220.109 229.766,220.439 229.657 C 221.033 229.459,278.154 228.883,293.684 228.919 L 306.140 228.947 306.236 235.298 " stroke="none" fill="#afabab" fill-rule="evenodd"></path></g></svg>